{
    "asset" : {
        "generator" : "Khronos glTF Blender I/O v1.5.17",
        "version" : "2.0"
    },
    "scene" : 0,
    "scenes" : [
        {
            "name" : "Scene",
            "nodes" : [
                0,
                1,
                2
            ]
        }
    ],
    "nodes" : [
        {
            "name" : "Light",
            "rotation" : [
                0.16907575726509094,
                0.7558803558349609,
                -0.27217137813568115,
                0.570947527885437
            ],
            "translation" : [
                4.076245307922363,
                5.903861999511719,
                -1.0054539442062378
            ]
        },
        {
            "name" : "Camera",
            "rotation" : [
                0.483536034822464,
                0.33687159419059753,
                -0.20870360732078552,
                0.7804827094078064
            ],
            "translation" : [
                7.358891487121582,
                4.958309173583984,
                6.925790786743164
            ]
        },
        {
            "mesh" : 0,
            "name" : "Feuerstein2_50kTris_2x2kTex:default1",
            "rotation" : [
                0.7071068286895752,
                0,
                0,
                0.7071067094802856
            ],
            "scale" : [
                0.009999999776482582,
                0.009999999776482582,
                0.009999999776482582
            ]
        }
    ],
    "materials" : [
        {
            "doubleSided" : true,
            "name" : "Feuerstein2_50kTris_2x2kTex:Feuerstein2_50kTris_2x2kTex_u1_v2",
            "pbrMetallicRoughness" : {
                "baseColorTexture" : {
                    "index" : 0
                },
                "metallicFactor" : 0.5,
                "roughnessFactor" : 0.858578622341156
            }
        },
        {
            "doubleSided" : true,
            "name" : "Feuerstein2_50kTris_2x2kTex:Feuerstein2_50kTris_2x2kTex_u2_v2",
            "pbrMetallicRoughness" : {
                "baseColorTexture" : {
                    "index" : 1
                },
                "metallicFactor" : 0.5,
                "roughnessFactor" : 0.858578622341156
            }
        }
    ],
    "meshes" : [
        {
            "name" : "Mesh.001",
            "primitives" : [
                {
                    "attributes" : {
                        "POSITION" : 0,
                        "NORMAL" : 1,
                        "TEXCOORD_0" : 2
                    },
                    "indices" : 3,
                    "material" : 0
                },
                {
                    "attributes" : {
                        "POSITION" : 4,
                        "NORMAL" : 5,
                        "TEXCOORD_0" : 6
                    },
                    "indices" : 7,
                    "material" : 1
                }
            ]
        }
    ],
    "textures" : [
        {
            "sampler" : 0,
            "source" : 0
        },
        {
            "sampler" : 0,
            "source" : 1
        }
    ],
    "images" : [
        {
            "bufferView" : 4,
            "mimeType" : "image/jpeg",
            "name" : "Feuerstein2_50kTris_2x2kTex_u1_v1"
        },
        {
            "bufferView" : 9,
            "mimeType" : "image/jpeg",
            "name" : "Feuerstein2_50kTris_2x2kTex_u2_v1"
        }
    ],
    "accessors" : [
        {
            "bufferView" : 0,
            "componentType" : 5126,
            "count" : 18522,
            "max" : [
                2.6408824920654297,
                2.482888698577881,
                0.0034477710723876953
            ],
            "min" : [
                -3.0833497047424316,
                -3.2286624908447266,
                -13.971826553344727
            ],
            "type" : "VEC3"
        },
        {
            "bufferView" : 1,
            "componentType" : 5126,
            "count" : 18522,
            "type" : "VEC3"
        },
        {
            "bufferView" : 2,
            "componentType" : 5126,
            "count" : 18522,
            "type" : "VEC2"
        },
        {
            "bufferView" : 3,
            "componentType" : 5123,
            "count" : 85530,
            "type" : "SCALAR"
        },
        {
            "bufferView" : 5,
            "componentType" : 5126,
            "count" : 13516,
            "max" : [
                2.619781494140625,
                2.492793083190918,
                -0.02165377140045166
            ],
            "min" : [
                -2.8352608680725098,
                -3.256864547729492,
                -13.993877410888672
            ],
            "type" : "VEC3"
        },
        {
            "bufferView" : 6,
            "componentType" : 5126,
            "count" : 13516,
            "type" : "VEC3"
        },
        {
            "bufferView" : 7,
            "componentType" : 5126,
            "count" : 13516,
            "type" : "VEC2"
        },
        {
            "bufferView" : 8,
            "componentType" : 5123,
            "count" : 64074,
            "type" : "SCALAR"
        }
    ],
    "bufferViews" : [
        {
            "buffer" : 0,
            "byteLength" : 222264,
            "byteOffset" : 0
        },
        {
            "buffer" : 0,
            "byteLength" : 222264,
            "byteOffset" : 222264
        },
        {
            "buffer" : 0,
            "byteLength" : 148176,
            "byteOffset" : 444528
        },
        {
            "buffer" : 0,
            "byteLength" : 171060,
            "byteOffset" : 592704
        },
        {
            "buffer" : 0,
            "byteLength" : 761849,
            "byteOffset" : 763764
        },
        {
            "buffer" : 0,
            "byteLength" : 162192,
            "byteOffset" : 1525616
        },
        {
            "buffer" : 0,
            "byteLength" : 162192,
            "byteOffset" : 1687808
        },
        {
            "buffer" : 0,
            "byteLength" : 108128,
            "byteOffset" : 1850000
        },
        {
            "buffer" : 0,
            "byteLength" : 128148,
            "byteOffset" : 1958128
        },
        {
            "buffer" : 0,
            "byteLength" : 554606,
            "byteOffset" : 2086276
        }
    ],
    "samplers" : [
        {
            "magFilter" : 9729,
            "minFilter" : 9987
        }
    ],
    "buffers" : [
        {
            "byteLength" : 2640884,
            "uri" : "data:application/octet-stream;base64,"
        }
    ]
}
