{
    "asset" : {
        "generator" : "Khronos glTF Blender I/O v1.5.17",
        "version" : "2.0"
    },
    "scene" : 0,
    "scenes" : [
        {
            "name" : "Scene",
            "nodes" : [
                0
            ]
        }
    ],
    "nodes" : [
        {
            "mesh" : 0,
            "name" : "Gemealde",
            "rotation" : [
                0.7071068286895752,
                0,
                0,
                0.7071067094802856
            ],
            "scale" : [
                0.009999999776482582,
                0.009999999776482582,
                0.009999999776482582
            ],
            "translation" : [
                0,
                0.4676457345485687,
                0
            ]
        }
    ],
    "materials" : [
        {
            "doubleSided" : true,
            "name" : "Hinten.003",
            "pbrMetallicRoughness" : {
                "baseColorTexture" : {
                    "index" : 0
                },
                "metallicFactor" : 0,
                "roughnessFactor" : 0.5527864098548889
            }
        },
        {
            "doubleSided" : true,
            "name" : "Vorne.003",
            "pbrMetallicRoughness" : {
                "baseColorTexture" : {
                    "index" : 1
                },
                "metallicFactor" : 0,
                "roughnessFactor" : 0.5527864098548889
            }
        }
    ],
    "meshes" : [
        {
            "name" : "Mesh.004",
            "primitives" : [
                {
                    "attributes" : {
                        "POSITION" : 0,
                        "NORMAL" : 1,
                        "TEXCOORD_0" : 2
                    },
                    "indices" : 3,
                    "material" : 0
                },
                {
                    "attributes" : {
                        "POSITION" : 4,
                        "NORMAL" : 5,
                        "TEXCOORD_0" : 6
                    },
                    "indices" : 7,
                    "material" : 1
                }
            ]
        }
    ],
    "textures" : [
        {
            "sampler" : 0,
            "source" : 0
        },
        {
            "sampler" : 0,
            "source" : 1
        }
    ],
    "images" : [
        {
            "bufferView" : 4,
            "mimeType" : "image/jpeg",
            "name" : "Hinten.1001_diffuse_2"
        },
        {
            "bufferView" : 9,
            "mimeType" : "image/jpeg",
            "name" : "Vorne.1001_diffuse_2"
        }
    ],
    "accessors" : [
        {
            "bufferView" : 0,
            "componentType" : 5126,
            "count" : 1976,
            "max" : [
                0.8912353515625,
                60.06195068359375,
                46.72227478027344
            ],
            "min" : [
                -5.6175537109375,
                -60.031524658203125,
                -45.8626708984375
            ],
            "type" : "VEC3"
        },
        {
            "bufferView" : 1,
            "componentType" : 5126,
            "count" : 1976,
            "type" : "VEC3"
        },
        {
            "bufferView" : 2,
            "componentType" : 5126,
            "count" : 1976,
            "type" : "VEC2"
        },
        {
            "bufferView" : 3,
            "componentType" : 5123,
            "count" : 8592,
            "type" : "SCALAR"
        },
        {
            "bufferView" : 5,
            "componentType" : 5126,
            "count" : 3321,
            "max" : [
                1.12945556640625,
                59.91644287109375,
                46.7327880859375
            ],
            "min" : [
                -2.310211181640625,
                -60.046417236328125,
                -45.8626708984375
            ],
            "type" : "VEC3"
        },
        {
            "bufferView" : 6,
            "componentType" : 5126,
            "count" : 3321,
            "type" : "VEC3"
        },
        {
            "bufferView" : 7,
            "componentType" : 5126,
            "count" : 3321,
            "type" : "VEC2"
        },
        {
            "bufferView" : 8,
            "componentType" : 5123,
            "count" : 18000,
            "type" : "SCALAR"
        }
    ],
    "bufferViews" : [
        {
            "buffer" : 0,
            "byteLength" : 23712,
            "byteOffset" : 0
        },
        {
            "buffer" : 0,
            "byteLength" : 23712,
            "byteOffset" : 23712
        },
        {
            "buffer" : 0,
            "byteLength" : 15808,
            "byteOffset" : 47424
        },
        {
            "buffer" : 0,
            "byteLength" : 17184,
            "byteOffset" : 63232
        },
        {
            "buffer" : 0,
            "byteLength" : 801140,
            "byteOffset" : 80416
        },
        {
            "buffer" : 0,
            "byteLength" : 39852,
            "byteOffset" : 881556
        },
        {
            "buffer" : 0,
            "byteLength" : 39852,
            "byteOffset" : 921408
        },
        {
            "buffer" : 0,
            "byteLength" : 26568,
            "byteOffset" : 961260
        },
        {
            "buffer" : 0,
            "byteLength" : 36000,
            "byteOffset" : 987828
        },
        {
            "buffer" : 0,
            "byteLength" : 1379051,
            "byteOffset" : 1023828
        }
    ],
    "samplers" : [
        {
            "magFilter" : 9729,
            "minFilter" : 9987
        }
    ],
    "buffers" : [
        {
            "byteLength" : 2402880,
            "uri" : "data:application/octet-stream;base64,"
        }
    ]
}
