{
    "asset" : {
        "generator" : "Khronos glTF Blender I/O v1.5.17",
        "version" : "2.0"
    },
    "scene" : 0,
    "scenes" : [
        {
            "name" : "Scene",
            "nodes" : [
                0,
                1,
                2
            ]
        }
    ],
    "nodes" : [
        {
            "name" : "Light",
            "rotation" : [
                0.16907575726509094,
                0.7558803558349609,
                -0.27217137813568115,
                0.570947527885437
            ],
            "translation" : [
                4.076245307922363,
                5.903861999511719,
                -1.0054539442062378
            ]
        },
        {
            "name" : "Camera",
            "rotation" : [
                0.483536034822464,
                0.33687159419059753,
                -0.20870360732078552,
                0.7804827094078064
            ],
            "translation" : [
                7.358891487121582,
                4.958309173583984,
                6.925790786743164
            ]
        },
        {
            "mesh" : 0,
            "name" : "Scheibe_25kTris_2x2kTex:default1",
            "rotation" : [
                0.7071068286895752,
                0,
                0,
                0.7071067094802856
            ],
            "scale" : [
                0.009999999776482582,
                0.009999999776482582,
                0.009999999776482582
            ]
        }
    ],
    "materials" : [
        {
            "doubleSided" : true,
            "name" : "Scheibe_25kTris_2x2kTex:Scheibe_25kTris_2x2kTex_u1_v2.002",
            "pbrMetallicRoughness" : {
                "baseColorTexture" : {
                    "index" : 0
                },
                "metallicFactor" : 0.5,
                "roughnessFactor" : 0.858578622341156
            }
        },
        {
            "doubleSided" : true,
            "name" : "Scheibe_25kTris_2x2kTex:Scheibe_25kTris_2x2kTex_u2_v2.002",
            "pbrMetallicRoughness" : {
                "baseColorTexture" : {
                    "index" : 1
                },
                "metallicFactor" : 0.5,
                "roughnessFactor" : 0.858578622341156
            }
        }
    ],
    "meshes" : [
        {
            "name" : "Mesh.002",
            "primitives" : [
                {
                    "attributes" : {
                        "POSITION" : 0,
                        "NORMAL" : 1,
                        "TEXCOORD_0" : 2
                    },
                    "indices" : 3,
                    "material" : 0
                },
                {
                    "attributes" : {
                        "POSITION" : 4,
                        "NORMAL" : 5,
                        "TEXCOORD_0" : 6
                    },
                    "indices" : 7,
                    "material" : 1
                }
            ]
        }
    ],
    "textures" : [
        {
            "sampler" : 0,
            "source" : 0
        },
        {
            "sampler" : 0,
            "source" : 1
        }
    ],
    "images" : [
        {
            "bufferView" : 4,
            "mimeType" : "image/jpeg",
            "name" : "Scheibe_25kTris_2x2kTex_u1_v1"
        },
        {
            "bufferView" : 9,
            "mimeType" : "image/jpeg",
            "name" : "Scheibe_25kTris_2x2kTex_u2_v1"
        }
    ],
    "accessors" : [
        {
            "bufferView" : 0,
            "componentType" : 5126,
            "count" : 8653,
            "max" : [
                3.9912109375,
                4.070556640625,
                0.002532958984375
            ],
            "min" : [
                -3.91845703125,
                -4.03369140625,
                -1.3283662796020508
            ],
            "type" : "VEC3"
        },
        {
            "bufferView" : 1,
            "componentType" : 5126,
            "count" : 8653,
            "type" : "VEC3"
        },
        {
            "bufferView" : 2,
            "componentType" : 5126,
            "count" : 8653,
            "type" : "VEC2"
        },
        {
            "bufferView" : 3,
            "componentType" : 5123,
            "count" : 37917,
            "type" : "SCALAR"
        },
        {
            "bufferView" : 5,
            "componentType" : 5126,
            "count" : 7915,
            "max" : [
                4.0140380859375,
                4.1041259765625,
                -0.008758544921875
            ],
            "min" : [
                -3.9190673828125,
                -4.0462646484375,
                -1.3307132720947266
            ],
            "type" : "VEC3"
        },
        {
            "bufferView" : 6,
            "componentType" : 5126,
            "count" : 7915,
            "type" : "VEC3"
        },
        {
            "bufferView" : 7,
            "componentType" : 5126,
            "count" : 7915,
            "type" : "VEC2"
        },
        {
            "bufferView" : 8,
            "componentType" : 5123,
            "count" : 37077,
            "type" : "SCALAR"
        }
    ],
    "bufferViews" : [
        {
            "buffer" : 0,
            "byteLength" : 103836,
            "byteOffset" : 0
        },
        {
            "buffer" : 0,
            "byteLength" : 103836,
            "byteOffset" : 103836
        },
        {
            "buffer" : 0,
            "byteLength" : 69224,
            "byteOffset" : 207672
        },
        {
            "buffer" : 0,
            "byteLength" : 75834,
            "byteOffset" : 276896
        },
        {
            "buffer" : 0,
            "byteLength" : 540734,
            "byteOffset" : 352732
        },
        {
            "buffer" : 0,
            "byteLength" : 94980,
            "byteOffset" : 893468
        },
        {
            "buffer" : 0,
            "byteLength" : 94980,
            "byteOffset" : 988448
        },
        {
            "buffer" : 0,
            "byteLength" : 63320,
            "byteOffset" : 1083428
        },
        {
            "buffer" : 0,
            "byteLength" : 74154,
            "byteOffset" : 1146748
        },
        {
            "buffer" : 0,
            "byteLength" : 489691,
            "byteOffset" : 1220904
        }
    ],
    "samplers" : [
        {
            "magFilter" : 9729,
            "minFilter" : 9987
        }
    ],
    "buffers" : [
        {
            "byteLength" : 1710596,
            "uri" : "data:application/octet-stream;base64,"
        }
    ]
}
