{
    "asset" : {
        "generator" : "Khronos glTF Blender I/O v1.5.17",
        "version" : "2.0"
    },
    "scene" : 0,
    "scenes" : [
        {
            "name" : "Scene",
            "nodes" : [
                0,
                1,
                2
            ]
        }
    ],
    "nodes" : [
        {
            "name" : "Light",
            "rotation" : [
                0.16907575726509094,
                0.7558803558349609,
                -0.27217137813568115,
                0.570947527885437
            ],
            "translation" : [
                4.076245307922363,
                5.903861999511719,
                -1.0054539442062378
            ]
        },
        {
            "name" : "Camera",
            "rotation" : [
                0.483536034822464,
                0.33687159419059753,
                -0.20870360732078552,
                0.7804827094078064
            ],
            "translation" : [
                7.358891487121582,
                4.958309173583984,
                6.925790786743164
            ]
        },
        {
            "mesh" : 0,
            "name" : "Schloss_Model_4:default1",
            "rotation" : [
                0.7071068286895752,
                0,
                0,
                0.7071067094802856
            ],
            "scale" : [
                0.009999999776482582,
                0.009999999776482582,
                0.009999999776482582
            ]
        }
    ],
    "materials" : [
        {
            "doubleSided" : true,
            "name" : "Schloss_Model_4:Schloss_Model_4_u1_v2",
            "pbrMetallicRoughness" : {
                "baseColorTexture" : {
                    "index" : 0
                },
                "metallicFactor" : 0.5,
                "roughnessFactor" : 0.858578622341156
            }
        },
        {
            "doubleSided" : true,
            "name" : "Schloss_Model_4:Schloss_Model_4_u2_v2",
            "pbrMetallicRoughness" : {
                "baseColorTexture" : {
                    "index" : 1
                },
                "metallicFactor" : 0.5,
                "roughnessFactor" : 0.858578622341156
            }
        }
    ],
    "meshes" : [
        {
            "name" : "Mesh.003",
            "primitives" : [
                {
                    "attributes" : {
                        "POSITION" : 0,
                        "NORMAL" : 1,
                        "TEXCOORD_0" : 2
                    },
                    "indices" : 3,
                    "material" : 0
                },
                {
                    "attributes" : {
                        "POSITION" : 4,
                        "NORMAL" : 5,
                        "TEXCOORD_0" : 6
                    },
                    "indices" : 7,
                    "material" : 1
                }
            ]
        }
    ],
    "textures" : [
        {
            "sampler" : 0,
            "source" : 0
        },
        {
            "sampler" : 0,
            "source" : 1
        }
    ],
    "images" : [
        {
            "bufferView" : 4,
            "mimeType" : "image/jpeg",
            "name" : "Schloss_Model_4_u1_v1"
        },
        {
            "bufferView" : 9,
            "mimeType" : "image/jpeg",
            "name" : "Schloss_Model_4_u2_v1"
        }
    ],
    "accessors" : [
        {
            "bufferView" : 0,
            "componentType" : 5126,
            "count" : 23560,
            "max" : [
                0.5891513824462891,
                1.8201227188110352,
                -0.008500099182128906
            ],
            "min" : [
                -1.2769758701324463,
                -1.7786293029785156,
                -3.987483024597168
            ],
            "type" : "VEC3"
        },
        {
            "bufferView" : 1,
            "componentType" : 5126,
            "count" : 23560,
            "type" : "VEC3"
        },
        {
            "bufferView" : 2,
            "componentType" : 5126,
            "count" : 23560,
            "type" : "VEC2"
        },
        {
            "bufferView" : 3,
            "componentType" : 5123,
            "count" : 98403,
            "type" : "SCALAR"
        },
        {
            "bufferView" : 5,
            "componentType" : 5126,
            "count" : 17113,
            "max" : [
                0.5933949947357178,
                1.8404464721679688,
                -0.053269386291503906
            ],
            "min" : [
                -1.2769758701324463,
                -1.7753677368164062,
                -3.895806312561035
            ],
            "type" : "VEC3"
        },
        {
            "bufferView" : 6,
            "componentType" : 5126,
            "count" : 17113,
            "type" : "VEC3"
        },
        {
            "bufferView" : 7,
            "componentType" : 5126,
            "count" : 17113,
            "type" : "VEC2"
        },
        {
            "bufferView" : 8,
            "componentType" : 5123,
            "count" : 81465,
            "type" : "SCALAR"
        }
    ],
    "bufferViews" : [
        {
            "buffer" : 0,
            "byteLength" : 282720,
            "byteOffset" : 0
        },
        {
            "buffer" : 0,
            "byteLength" : 282720,
            "byteOffset" : 282720
        },
        {
            "buffer" : 0,
            "byteLength" : 188480,
            "byteOffset" : 565440
        },
        {
            "buffer" : 0,
            "byteLength" : 196806,
            "byteOffset" : 753920
        },
        {
            "buffer" : 0,
            "byteLength" : 500831,
            "byteOffset" : 950728
        },
        {
            "buffer" : 0,
            "byteLength" : 205356,
            "byteOffset" : 1451560
        },
        {
            "buffer" : 0,
            "byteLength" : 205356,
            "byteOffset" : 1656916
        },
        {
            "buffer" : 0,
            "byteLength" : 136904,
            "byteOffset" : 1862272
        },
        {
            "buffer" : 0,
            "byteLength" : 162930,
            "byteOffset" : 1999176
        },
        {
            "buffer" : 0,
            "byteLength" : 390119,
            "byteOffset" : 2162108
        }
    ],
    "samplers" : [
        {
            "magFilter" : 9729,
            "minFilter" : 9987
        }
    ],
    "buffers" : [
        {
            "byteLength" : 2552228,
            "uri" : "data:application/octet-stream;base64,"
        }
    ]
}
