{
    "asset" : {
        "generator" : "Khronos glTF Blender I/O v1.5.17",
        "version" : "2.0"
    },
    "scene" : 0,
    "scenes" : [
        {
            "name" : "Scene",
            "nodes" : [
                0,
                1,
                2
            ]
        }
    ],
    "nodes" : [
        {
            "name" : "Light",
            "rotation" : [
                0.16907575726509094,
                0.7558803558349609,
                -0.27217137813568115,
                0.570947527885437
            ],
            "translation" : [
                4.076245307922363,
                5.903861999511719,
                -1.0054539442062378
            ]
        },
        {
            "name" : "Camera",
            "rotation" : [
                0.483536034822464,
                0.33687159419059753,
                -0.20870360732078552,
                0.7804827094078064
            ],
            "translation" : [
                7.358891487121582,
                4.958309173583984,
                6.925790786743164
            ]
        },
        {
            "mesh" : 0,
            "name" : "VaseMittel_45kTris_2x2kTex",
            "rotation" : [
                0.7071068286895752,
                0,
                0,
                0.7071067094802856
            ]
        }
    ],
    "materials" : [
        {
            "doubleSided" : true,
            "name" : "VaseMittel_45kTris_2x2kTex:VaseMittel_45kTris_2x2kTex_u1_v1",
            "pbrMetallicRoughness" : {
                "baseColorTexture" : {
                    "index" : 0
                }
            }
        },
        {
            "doubleSided" : true,
            "name" : "VaseMittel_45kTris_2x2kTex:VaseMittel_45kTris_2x2kTex_u2_v1",
            "pbrMetallicRoughness" : {
                "baseColorTexture" : {
                    "index" : 1
                }
            }
        }
    ],
    "meshes" : [
        {
            "name" : "VaseMittel_45kTris_2x2kTex",
            "primitives" : [
                {
                    "attributes" : {
                        "POSITION" : 0,
                        "TEXCOORD_0" : 1
                    },
                    "indices" : 2,
                    "material" : 0
                },
                {
                    "attributes" : {
                        "POSITION" : 3,
                        "TEXCOORD_0" : 4
                    },
                    "indices" : 5,
                    "material" : 1
                }
            ]
        }
    ],
    "textures" : [
        {
            "sampler" : 0,
            "source" : 0
        },
        {
            "sampler" : 0,
            "source" : 1
        }
    ],
    "images" : [
        {
            "bufferView" : 3,
            "mimeType" : "image/jpeg",
            "name" : "VaseMittel_45kTris_2x2kTex_u1_v1"
        },
        {
            "bufferView" : 7,
            "mimeType" : "image/jpeg",
            "name" : "VaseMittel_45kTris_2x2kTex_u2_v1"
        }
    ],
    "accessors" : [
        {
            "bufferView" : 0,
            "componentType" : 5126,
            "count" : 24578,
            "max" : [
                6.445435047149658,
                6.377808094024658,
                0.011448999866843224
            ],
            "min" : [
                -6.395751953125,
                -6.408446788787842,
                -15.017333984375
            ],
            "type" : "VEC3"
        },
        {
            "bufferView" : 1,
            "componentType" : 5126,
            "count" : 24578,
            "type" : "VEC2"
        },
        {
            "bufferView" : 2,
            "componentType" : 5123,
            "count" : 77637,
            "type" : "SCALAR"
        },
        {
            "bufferView" : 4,
            "componentType" : 5126,
            "count" : 15239,
            "max" : [
                6.419921875,
                6.411376953125,
                0.0035059999208897352
            ],
            "min" : [
                -6.450928211212158,
                -6.410767078399658,
                -14.994384765625
            ],
            "type" : "VEC3"
        },
        {
            "bufferView" : 5,
            "componentType" : 5126,
            "count" : 15239,
            "type" : "VEC2"
        },
        {
            "bufferView" : 6,
            "componentType" : 5123,
            "count" : 57177,
            "type" : "SCALAR"
        }
    ],
    "bufferViews" : [
        {
            "buffer" : 0,
            "byteLength" : 294936,
            "byteOffset" : 0
        },
        {
            "buffer" : 0,
            "byteLength" : 196624,
            "byteOffset" : 294936
        },
        {
            "buffer" : 0,
            "byteLength" : 155274,
            "byteOffset" : 491560
        },
        {
            "buffer" : 0,
            "byteLength" : 696975,
            "byteOffset" : 646836
        },
        {
            "buffer" : 0,
            "byteLength" : 182868,
            "byteOffset" : 1343812
        },
        {
            "buffer" : 0,
            "byteLength" : 121912,
            "byteOffset" : 1526680
        },
        {
            "buffer" : 0,
            "byteLength" : 114354,
            "byteOffset" : 1648592
        },
        {
            "buffer" : 0,
            "byteLength" : 576714,
            "byteOffset" : 1762948
        }
    ],
    "samplers" : [
        {
            "magFilter" : 9729,
            "minFilter" : 9987
        }
    ],
    "buffers" : [
        {
            "byteLength" : 2339664,
            "uri" : "data:application/octet-stream;base64,"
        }
    ]
}
