{
    "asset" : {
        "generator" : "Khronos glTF Blender I/O v1.5.17",
        "version" : "2.0"
    },
    "scene" : 0,
    "scenes" : [
        {
            "name" : "Scene",
            "nodes" : [
                0,
                1,
                2
            ]
        }
    ],
    "nodes" : [
        {
            "name" : "Light",
            "rotation" : [
                0.16907575726509094,
                0.7558803558349609,
                -0.27217137813568115,
                0.570947527885437
            ],
            "translation" : [
                4.076245307922363,
                5.903861999511719,
                -1.0054539442062378
            ]
        },
        {
            "name" : "Camera",
            "rotation" : [
                0.483536034822464,
                0.33687159419059753,
                -0.20870360732078552,
                0.7804827094078064
            ],
            "translation" : [
                7.358891487121582,
                4.958309173583984,
                6.925790786743164
            ]
        },
        {
            "mesh" : 0,
            "name" : "VaseKlein_30KTris_2x2kTex:default1",
            "rotation" : [
                0.7071068286895752,
                0,
                0,
                0.7071067094802856
            ],
            "scale" : [
                1.999444793909788e-05,
                1.999444793909788e-05,
                1.999444793909788e-05
            ],
            "translation" : [
                0,
                -0.00047144113341346383,
                0
            ]
        }
    ],
    "materials" : [
        {
            "doubleSided" : true,
            "name" : "VaseKlein_30KTris_2x2kTex:VaseKlein_30KTris_2x2kTex_u1_v2",
            "pbrMetallicRoughness" : {
                "baseColorTexture" : {
                    "index" : 0
                },
                "metallicFactor" : 0.5,
                "roughnessFactor" : 0.858578622341156
            }
        },
        {
            "doubleSided" : true,
            "name" : "VaseKlein_30KTris_2x2kTex:VaseKlein_30KTris_2x2kTex_u2_v2",
            "pbrMetallicRoughness" : {
                "baseColorTexture" : {
                    "index" : 1
                },
                "metallicFactor" : 0.5,
                "roughnessFactor" : 0.858578622341156
            }
        }
    ],
    "meshes" : [
        {
            "name" : "Mesh",
            "primitives" : [
                {
                    "attributes" : {
                        "POSITION" : 0,
                        "TEXCOORD_0" : 1
                    },
                    "indices" : 2,
                    "material" : 0
                },
                {
                    "attributes" : {
                        "POSITION" : 3,
                        "TEXCOORD_0" : 4
                    },
                    "indices" : 5,
                    "material" : 1
                }
            ]
        }
    ],
    "textures" : [
        {
            "sampler" : 0,
            "source" : 0
        },
        {
            "sampler" : 0,
            "source" : 1
        }
    ],
    "images" : [
        {
            "bufferView" : 3,
            "mimeType" : "image/jpeg",
            "name" : "VaseKlein_30KTris_2x2kTex_u1_v1"
        },
        {
            "bufferView" : 7,
            "mimeType" : "image/jpeg",
            "name" : "VaseKlein_30KTris_2x2kTex_u2_v1"
        }
    ],
    "accessors" : [
        {
            "bufferView" : 0,
            "componentType" : 5126,
            "count" : 11701,
            "max" : [
                1450.537353515625,
                1898.3846435546875,
                -29.270172119140625
            ],
            "min" : [
                -1116.9339599609375,
                -1605.4403076171875,
                -2497.095947265625
            ],
            "type" : "VEC3"
        },
        {
            "bufferView" : 1,
            "componentType" : 5126,
            "count" : 11701,
            "type" : "VEC2"
        },
        {
            "bufferView" : 2,
            "componentType" : 5123,
            "count" : 49308,
            "type" : "SCALAR"
        },
        {
            "bufferView" : 4,
            "componentType" : 5126,
            "count" : 8687,
            "max" : [
                1440.999267578125,
                1945.5167236328125,
                -21.470260620117188
            ],
            "min" : [
                -1116.9339599609375,
                -1594.714111328125,
                -2481.7255859375
            ],
            "type" : "VEC3"
        },
        {
            "bufferView" : 5,
            "componentType" : 5126,
            "count" : 8687,
            "type" : "VEC2"
        },
        {
            "bufferView" : 6,
            "componentType" : 5123,
            "count" : 40644,
            "type" : "SCALAR"
        }
    ],
    "bufferViews" : [
        {
            "buffer" : 0,
            "byteLength" : 140412,
            "byteOffset" : 0
        },
        {
            "buffer" : 0,
            "byteLength" : 93608,
            "byteOffset" : 140412
        },
        {
            "buffer" : 0,
            "byteLength" : 98616,
            "byteOffset" : 234020
        },
        {
            "buffer" : 0,
            "byteLength" : 723696,
            "byteOffset" : 332636
        },
        {
            "buffer" : 0,
            "byteLength" : 104244,
            "byteOffset" : 1056332
        },
        {
            "buffer" : 0,
            "byteLength" : 69496,
            "byteOffset" : 1160576
        },
        {
            "buffer" : 0,
            "byteLength" : 81288,
            "byteOffset" : 1230072
        },
        {
            "buffer" : 0,
            "byteLength" : 587856,
            "byteOffset" : 1311360
        }
    ],
    "samplers" : [
        {
            "magFilter" : 9729,
            "minFilter" : 9987
        }
    ],
    "buffers" : [
        {
            "byteLength" : 1899216,
            "uri" : "data:application/octet-stream;base64,"
        }
    ]
}
